<?xml version="1.0" encoding="UTF-8"?>
<svg xmlns="http://www.w3.org/2000/svg" viewBox="0 0 128 128" width="128" height="128">
  <!-- Arrow tip stone (top) -->
  <ellipse cx="64" cy="30" rx="11" ry="9" fill="#6b4423"/>
  <ellipse cx="64" cy="27.5" rx="11" ry="9" fill="#a67c52"/>
  <ellipse cx="60" cy="24" rx="4" ry="2.5" fill="#c9a77d" opacity="0.6"/>

  <!-- Left shoulder stone -->
  <ellipse cx="40" cy="54" rx="10" ry="8" fill="#6b4423"/>
  <ellipse cx="40" cy="51.5" rx="10" ry="8" fill="#94653d"/>
  <ellipse cx="37" cy="48" rx="3.5" ry="2" fill="#b8895c" opacity="0.6"/>

  <!-- Right shoulder stone -->
  <ellipse cx="88" cy="54" rx="10" ry="8" fill="#6b4423"/>
  <ellipse cx="88" cy="51.5" rx="10" ry="8" fill="#a67c52"/>
  <ellipse cx="85" cy="48" rx="3.5" ry="2" fill="#c9a77d" opacity="0.6"/>

  <!-- Upper shaft stone -->
  <ellipse cx="64" cy="78" rx="10" ry="8" fill="#5c3a1f"/>
  <ellipse cx="64" cy="75.5" rx="10" ry="8" fill="#8b5a2b"/>
  <ellipse cx="61" cy="72" rx="3.5" ry="2" fill="#b07a44" opacity="0.6"/>

  <!-- Base stone -->
  <ellipse cx="64" cy="102" rx="11" ry="9" fill="#5c3a1f"/>
  <ellipse cx="64" cy="99.5" rx="11" ry="9" fill="#7d4f28"/>
  <ellipse cx="60" cy="96" rx="4" ry="2.5" fill="#a67c52" opacity="0.6"/>
</svg>
